<svg width="2987" height="355" viewBox="0 0 2987 355" fill="none" xmlns="http://www.w3.org/2000/svg">
<path d="M208.532 141.244C209.177 141.898 209.538 142.779 209.538 143.697V209.101C209.538 211.031 207.973 212.596 206.043 212.596H147.418C144.317 212.596 142.752 216.335 144.929 218.544L208.532 283.07C209.177 283.724 209.538 284.606 209.538 285.524V350.928C209.538 352.858 207.973 354.423 206.043 354.423H141.673C140.746 354.423 139.857 354.055 139.202 353.399L69.8945 284.091L1.00577 214.198C0.361291 213.544 0 212.663 0 211.745V145.322C0 143.392 1.56464 141.827 3.49472 141.827H60.5884C63.6828 141.827 65.2505 138.102 63.0875 135.89L0.995637 72.3691C0.357366 71.7162 0 70.8393 0 69.9263V3.49472C0 1.56464 1.56464 0 3.49472 0H67.8492C68.7848 0 69.6813 0.375149 70.3381 1.04147L208.532 141.244Z" fill="white"/>
<path d="M372.16 284.711V69.7052H441.624V284.711H372.16ZM506.061 284.711V99.4753H560.308L568.909 124.284C587.432 106.422 608.933 96.1675 642.672 96.1675C688.981 96.1675 721.397 126.93 721.397 167.616V284.711H655.242V184.485C655.242 161.992 644.657 152.731 618.856 152.731C601.325 152.731 583.794 161.662 572.216 176.547V284.711H506.061ZM872.426 206.647C872.426 222.525 878.711 228.809 891.942 228.809C901.865 228.809 927.335 228.148 933.289 227.486V285.703C927.997 286.696 887.973 288.019 877.388 288.019C829.756 288.019 806.27 267.18 806.27 224.84V145.784H769.223V99.4753H806.27V63.0897L872.426 49.8586V99.4753H931.966V145.784H872.426V206.647ZM1091.35 288.019C1019.24 288.019 979.551 253.618 979.551 191.762C979.551 130.238 1019.58 96.1675 1091.02 96.1675C1155.19 96.1675 1190.92 123.291 1195.22 174.231C1196.54 188.124 1195.55 199.37 1194.56 208.301H1048.35C1053.31 227.156 1068.53 236.748 1093.67 236.748C1113.19 236.748 1125.76 230.133 1131.05 220.209H1194.56C1185.96 264.864 1150.56 288.019 1091.35 288.019ZM1049.01 173.239H1133.69C1131.38 156.7 1116.16 147.438 1092.02 147.438C1069.19 147.438 1054.64 156.369 1049.01 173.239ZM1252.22 284.711V99.4753H1306.47L1315.07 124.284C1333.6 106.422 1355.1 96.1675 1388.83 96.1675C1435.14 96.1675 1467.56 126.93 1467.56 167.616V284.711H1401.4V184.485C1401.4 161.992 1390.82 152.731 1365.02 152.731C1347.49 152.731 1329.96 161.662 1318.38 176.547V284.711H1252.22ZM1618.59 206.647C1618.59 222.525 1624.87 228.809 1638.1 228.809C1648.03 228.809 1673.5 228.148 1679.45 227.486V285.703C1674.16 286.696 1634.14 288.019 1623.55 288.019C1575.92 288.019 1552.43 267.18 1552.43 224.84V145.784H1515.39V99.4753H1552.43V63.0897L1618.59 49.8586V99.4753H1678.13V145.784H1618.59V206.647ZM2063.36 218.225C2063.36 266.849 2026.98 288.019 1959.17 288.019C1882.09 288.019 1847.03 260.564 1849.35 212.271H1915.17C1916.5 228.479 1928.07 235.425 1961.81 235.094C1986.62 234.763 1995.88 230.794 1995.88 219.548C1995.88 207.309 1976.7 205.324 1952.55 203.009C1909.55 199.37 1850.34 195.732 1850.34 136.853C1850.34 90.5443 1886.06 66.3975 1954.2 66.3975C2023.01 66.3975 2058.07 89.8827 2061.05 138.176H1994.89C1993.57 125.937 1981 119.322 1956.19 119.322C1933.03 119.322 1921.13 124.945 1921.13 135.199C1921.13 147.107 1940.31 149.092 1964.46 151.407C2006.14 155.377 2063.36 160.338 2063.36 218.225ZM2178.25 284.711L2107.47 99.4753H2179.91L2212.98 207.97L2249.04 99.4753H2307.59L2343.64 207.97L2376.72 99.4753H2449.16L2378.37 284.711H2312.55L2278.48 182.831L2244.08 284.711H2178.25ZM2485.77 233.11C2485.77 198.378 2507.6 180.516 2549.28 180.516H2624.36V170.262C2624.36 154.384 2613.45 147.438 2588.64 147.438C2563.17 147.438 2552.25 151.738 2551.59 162.323H2490.73C2490.73 118.991 2525.13 96.1675 2590.29 96.1675C2650.83 96.1675 2690.52 118.991 2690.52 154.054V284.711H2636.27L2627.01 261.556C2610.8 278.757 2584.67 288.019 2555.89 288.019C2508.92 288.019 2485.77 266.518 2485.77 233.11ZM2624.36 217.563V213.263H2573.09C2558.87 213.263 2552.58 217.563 2552.58 227.156C2552.58 237.74 2559.53 242.041 2576.07 242.041C2597.9 242.041 2619.07 232.117 2624.36 217.563ZM2751.66 99.4753H2804.58L2812.19 120.976C2827.4 107.083 2847.25 96.1675 2878.01 96.1675C2946.15 96.1675 2979.56 127.922 2979.56 192.424C2979.56 256.595 2945.82 288.019 2877.68 288.019C2852.21 288.019 2832.7 279.749 2817.81 269.164V344.251H2751.66V99.4753ZM2817.81 173.9V210.617C2834.02 225.832 2848.9 230.794 2866.77 230.794C2898.19 230.794 2912.41 218.886 2912.41 192.424C2912.41 166.292 2898.85 153.723 2869.08 153.723C2850.56 153.723 2832.03 159.677 2817.81 173.9Z" fill="white"/>
</svg>
