<svg width="230" height="375" viewBox="0 0 230 375" fill="none" xmlns="http://www.w3.org/2000/svg">
<path d="M218.532 151.244C219.177 151.898 219.538 152.779 219.538 153.697V219.101C219.538 221.031 217.973 222.596 216.043 222.596H157.418C154.317 222.596 152.752 226.335 154.929 228.544L218.532 293.07C219.177 293.724 219.538 294.606 219.538 295.524V360.928C219.538 362.858 217.973 364.423 216.043 364.423H151.673C150.746 364.423 149.857 364.055 149.202 363.399L79.8945 294.091L11.0058 224.198C10.3613 223.544 10 222.663 10 221.745V155.322C10 153.392 11.5646 151.827 13.4947 151.827H70.5884C73.6828 151.827 75.2505 148.102 73.0875 145.89L10.9956 82.3691C10.3574 81.7162 10 80.8393 10 79.9263V13.4947C10 11.5646 11.5646 10 13.4947 10H77.8492C78.7848 10 79.6813 10.3751 80.3381 11.0415L218.532 151.244Z" fill="#0093D3"/>
</svg>
